<?xml version="1.0" standalone="no"?><!DOCTYPE svg PUBLIC "-//W3C//DTD SVG 1.1//EN" "http://www.w3.org/Graphics/SVG/1.1/DTD/svg11.dtd"><svg t="1565437085859" class="icon" viewBox="0 0 1024 1024" version="1.1" xmlns="http://www.w3.org/2000/svg" p-id="6019" xmlns:xlink="http://www.w3.org/1999/xlink" width="32" height="32"><defs><style type="text/css"></style></defs><path d="M554.667 384h234.666L554.667 149.333V384M256 85.333h341.333l256 256v512c0 46.934-38.4 85.334-85.333 85.334H256c-47.36 0-85.333-38.4-85.333-85.334V170.667A85.038 85.038 0 0 1 256 85.333m0 768h512V512L597.333 682.667 512 597.333l-256 256M341.333 384C294.4 384 256 422.4 256 469.333c0 46.934 38.4 85.334 85.333 85.334 46.934 0 85.334-38.4 85.334-85.334 0-46.933-38.4-85.333-85.334-85.333z" p-id="6020"></path></svg>