<?xml version="1.0" standalone="no"?><!DOCTYPE svg PUBLIC "-//W3C//DTD SVG 1.1//EN" "http://www.w3.org/Graphics/SVG/1.1/DTD/svg11.dtd"><svg t="1565437159790" class="icon" viewBox="0 0 1025 1024" version="1.1" xmlns="http://www.w3.org/2000/svg" p-id="6994" xmlns:xlink="http://www.w3.org/1999/xlink" width="32.03125" height="32"><defs><style type="text/css"></style></defs><path d="M960.04096 192l-28.38528 0c-16.7936 0-32.93184 6.61504-44.93312 18.432l-86.69184 85.504 0-39.936c0-53.02272-43.008-96.01024-96.01024-96.01024l-608.01024 0c-52.92032 0-96.01024 43.04896-96.01024 96.01024l0 512c0 52.98176 42.96704 96.01024 96.01024 96.01024l608.01024 0c52.98176 0 96.01024-43.008 96.01024-96.01024l0-39.07584 86.69184 85.504c12.00128 11.81696 28.11904 18.432 44.93312 18.432l28.38528 0c35.328 0 64-28.63104 64-64l0-512.86016c0-35.36896-28.672-64-64-64zM96.0512 800.01024c-17.67424 0-32.01024-14.37696-32.01024-32.01024l0-512c0-17.69472 14.29504-32.01024 32.01024-32.01024l608.01024 0c17.63328 0 32.01024 14.336 32.01024 32.01024l0 512c0 17.63328-14.37696 32.01024-32.01024 32.01024l-608.01024 0zM960.04096 768.86016l-32.01024 0-128-128 0-0.86016-32.01024-32.01024 0-192 160.01024-160.01024 32.01024 0 0 512.86016z" p-id="6995"></path></svg>